<svg width="16" height="16" viewBox="0 0 16 16" xmlns="http://www.w3.org/2000/svg" fill="#4a73e8"><path d="M15.5606 2.38375L13.6163 0.439375C13.3231 0.146563 12.9394 0 12.5556 0C12.1716 0 11.7878 0.146563 11.495 0.439375L0.439392 11.495C-0.146545 12.0809 -0.146545 13.0306 0.439392 13.6163L2.38377 15.5606C2.67658 15.8534 3.06064 16 3.44439 16C3.82814 16 4.21221 15.8534 4.50502 15.5606L15.5603 4.505C16.1466 3.91938 16.1466 2.96969 15.5606 2.38375ZM3.44471 14.5L1.50002 12.5556L8.49689 5.55781L10.4419 7.50281L3.44471 14.5ZM11.5025 6.44187L9.55752 4.49687L12.5541 1.5H12.5556L14.5 3.44438L11.5025 6.44187ZM13.5 9L12.6669 10.6666L11 11.5L12.6669 12.3334L13.5 14L14.3331 12.3334L16 11.5L14.3331 10.6666L13.5 9ZM7.00002 3L7.50002 2L8.50002 1.5L7.50002 1L7.00002 0L6.50002 1L5.50002 1.5L6.50002 2L7.00002 3ZM2.50002 5L3.33314 3.33344L5.00002 2.5L3.33314 1.66656L2.50002 0L1.66689 1.66656L1.70767e-05 2.5L1.66689 3.33344L2.50002 5Z"></path></svg>